<svg width="429.00000000000006" height="73.20750806136664"
  viewBox="0 0 390.5589054904275 66.64765552943823" class="looka-1j8o68f">
  <defs id="SvgjsDefs5608"></defs>
  <g id="SvgjsG5609" featurekey="7fT3kx-0"
    transform="matrix(0.379546228815142,0,0,0.379546228815142,151.64322706614118,58.920094079105304)"
    fill="#f9fafb">
    <path
      d="M8.32 5.48 c1 0 1.9367 0.18664 2.81 0.55998 s1.59 0.92 2.15 1.64 l-1.6 1.22 c-0.86666 -1.08 -2.0066 -1.62 -3.42 -1.62 c-1.5333 0 -2.7966 0.54666 -3.79 1.64 s-1.49 2.4666 -1.49 4.12 c0 1.6 0.49 2.92 1.47 3.96 s2.25 1.56 3.81 1.56 s2.7934 -0.63334 3.7 -1.9 l1.62 1.22 c-0.56 0.74666 -1.3067 1.3467 -2.24 1.8 s-1.9733 0.68 -3.12 0.68 c-1.36 0 -2.5934 -0.33 -3.7 -0.99 s-1.98 -1.5667 -2.62 -2.72 s-0.96 -2.3634 -0.96 -3.63 c0 -2.1866 0.68666 -3.99 2.06 -5.41 s3.1466 -2.13 5.32 -2.13 z M29.648000000000003 5.48 c2.1066 0 3.8634 0.69998 5.27 2.1 s2.11 3.18 2.11 5.34 c0 1.3733 -0.31334 2.63 -0.94 3.77 s-1.51 2.0366 -2.65 2.69 s-2.4034 0.98 -3.79 0.98 c-1.3733 0 -2.6266 -0.32334 -3.76 -0.97 s-2.02 -1.54 -2.66 -2.68 s-0.96 -2.4034 -0.96 -3.79 c0 -2.1066 0.69 -3.8734 2.07 -5.3 s3.15 -2.14 5.31 -2.14 z M24.308000000000003 12.92 c0 1.6 0.49998 2.94 1.5 4.02 s2.28 1.62 3.84 1.62 c1.5333 0 2.8066 -0.53334 3.82 -1.6 s1.52 -2.4134 1.52 -4.04 c0 -1.6133 -0.5 -2.9566 -1.5 -4.03 s-2.2866 -1.61 -3.86 -1.61 c-1.52 0 -2.7866 0.53334 -3.8 1.6 s-1.52 2.4134 -1.52 4.04 z M51.75600000000001 5.84 c1.5067 0 2.8134 0.31 3.92 0.93 s1.9533 1.47 2.54 2.55 s0.88 2.28 0.88 3.6 s-0.32666 2.5234 -0.98 3.61 s-1.5667 1.9367 -2.74 2.55 s-2.48 0.92 -3.92 0.92 l-4.74 0 l0 -14.16 l5.04 0 z M51.156000000000006 18.2 c1.08 0 2.07 -0.21002 2.97 -0.63002 s1.6133 -1.0233 2.14 -1.81 s0.79 -1.7333 0.79 -2.84 c0 -1.6 -0.49666 -2.88 -1.49 -3.84 s-2.31 -1.44 -3.95 -1.44 l-2.98 0 l0 10.56 l2.52 0 z M78.244 5.84 l0 1.8 l-7.22 0 l0 4.22 l6.72 0 l0 1.8 l-6.72 0 l0 4.54 l7.58 0 l0 1.8 l-9.5 0 l0 -14.16 l9.14 0 z M107.88000000000002 5.48 c1 0 1.9367 0.18664 2.81 0.55998 s1.59 0.92 2.15 1.64 l-1.6 1.22 c-0.86666 -1.08 -2.0066 -1.62 -3.42 -1.62 c-1.5333 0 -2.7966 0.54666 -3.79 1.64 s-1.49 2.4666 -1.49 4.12 c0 1.6 0.49 2.92 1.47 3.96 s2.25 1.56 3.81 1.56 s2.7934 -0.63334 3.7 -1.9 l1.62 1.22 c-0.56 0.74666 -1.3067 1.3467 -2.24 1.8 s-1.9733 0.68 -3.12 0.68 c-1.36 0 -2.5934 -0.33 -3.7 -0.99 s-1.98 -1.5667 -2.62 -2.72 s-0.96 -2.3634 -0.96 -3.63 c0 -2.1866 0.68666 -3.99 2.06 -5.41 s3.1466 -2.13 5.32 -2.13 z M127.78800000000003 5.84 c1.3867 0 2.4734 0.34666 3.26 1.04 s1.18 1.6667 1.18 2.92 c0 0.94666 -0.32334 1.7733 -0.97 2.48 s-1.4767 1.1267 -2.49 1.26 l-0.02 0 l4.02 6.46 l-2.4 0 l-3.6 -6.24 l-2.14 0 l0 6.24 l-1.92 0 l0 -14.16 l5.08 0 z M127.22800000000002 12.08 c1 0 1.7433 -0.18336 2.23 -0.55002 s0.73 -0.94332 0.73 -1.73 c0 -1.52 -0.98666 -2.28 -2.96 -2.28 l-2.6 0 l0 4.56 l2.6 0 z M148.35600000000002 5.84 l6.06 14.16 l-2.24 0 l-1.42 -3.5 l-6.74 0 l-1.4 3.5 l-2.24 0 l6.24 -14.16 l1.74 0 z M144.69600000000003 14.82 l5.36 0 l-2.64 -6.5 l-0.04 0 z M172.40400000000002 5.84 l0 1.8 l-6.98 0 l0 4.44 l6.5 0 l0 1.8 l-6.5 0 l0 6.12 l-1.92 0 l0 -14.16 l8.9 0 z M191.67200000000003 5.84 l0 1.8 l-4.56 0 l0 12.36 l-1.92 0 l0 -12.36 l-4.56 0 l0 -1.8 l11.04 0 z M210.10000000000005 5.84 l0 1.8 l-7.22 0 l0 4.22 l6.72 0 l0 1.8 l-6.72 0 l0 4.54 l7.58 0 l0 1.8 l-9.5 0 l0 -14.16 l9.14 0 z M225.14800000000005 5.84 c1.5067 0 2.8134 0.31 3.92 0.93 s1.9533 1.47 2.54 2.55 s0.88 2.28 0.88 3.6 s-0.32666 2.5234 -0.98 3.61 s-1.5667 1.9367 -2.74 2.55 s-2.48 0.92 -3.92 0.92 l-4.74 0 l0 -14.16 l5.04 0 z M224.54800000000006 18.2 c1.08 0 2.07 -0.21002 2.97 -0.63002 s1.6133 -1.0233 2.14 -1.81 s0.79 -1.7333 0.79 -2.84 c0 -1.6 -0.49666 -2.88 -1.49 -3.84 s-2.31 -1.44 -3.95 -1.44 l-2.98 0 l0 10.56 l2.52 0 z"></path>
  </g>
  <g id="SvgjsG5610" featurekey="nameLeftFeature-0"
    transform="matrix(1.7397473224455138,0,0,1.7397473224455138,-0.19595159450744257,1.301266706077108)"
    fill="#34d399">
    <path
      d="M14.78 18.86 q0.14 0.32 -0.07 0.65 t-0.57 0.33 l-13.32 0 q-0.18 0 -0.34 -0.09 t-0.24 -0.23 q-0.22 -0.32 -0.06 -0.66 l0.62 -1.46 q0.08 -0.2 0.26 -0.32 t0.38 -0.12 l9.32 0 l-3.28 -7.84 l-2.68 6.4 q-0.08 0.2 -0.25 0.31 t-0.39 0.11 l-1.68 0 q-0.38 0 -0.6 -0.32 q-0.08 -0.14 -0.1 -0.32 t0.04 -0.34 l4.06 -9.52 q0.08 -0.2 0.25 -0.32 t0.39 -0.12 l1.92 0 q0.22 0 0.39 0.12 t0.25 0.32 z M29.073999999999998 14.02 l2.98 4.58 q0.1 0.16 0.11 0.36 t-0.08 0.36 t-0.26 0.26 t-0.35 0.1 l-1.8 0 q-0.18 0 -0.34 -0.09 t-0.24 -0.23 l-3 -4.78 l-3.54 0 l0 4.4 q0 0.28 -0.21 0.49 t-0.49 0.21 l-1.5 0 q-0.28 0 -0.49 -0.21 t-0.21 -0.49 l0 -13.28 q0 -0.28 0.21 -0.49 t0.49 -0.21 l6.36 0 q2.3 0 3.73 1.31 t1.43 3.55 q0 1.44 -0.63 2.47 t-1.85 1.55 q-0.08 0.04 -0.26 0.12 z M22.554 7.82 l0 3.94 l3.9 0 q1.72 0 2.34 -0.98 q0.2 -0.36 0.2 -0.92 q0 -0.94 -0.62 -1.48 q-0.68 -0.56 -1.84 -0.56 l-3.98 0 z M49.288 5 q0.2 0 0.37 0.1 t0.25 0.27 t0.07 0.37 t-0.11 0.36 l-5.44 7.84 l0 5.04 q0 0.28 -0.21 0.49 t-0.49 0.21 l-1.5 0 q-0.28 0 -0.49 -0.21 t-0.21 -0.49 l0 -5.04 l-5.46 -7.84 q-0.1 -0.16 -0.11 -0.36 t0.07 -0.37 t0.25 -0.27 t0.37 -0.1 l1.82 0 q0.34 0 0.58 0.3 l3.92 5.64 l3.92 -5.64 q0.24 -0.3 0.58 -0.3 l1.82 0 z M62.062 5.42 l5.6 13.22 q0.1 0.16 0.1 0.34 q0 0.28 -0.2 0.49 t-0.5 0.21 l-1.66 0 q-0.22 0 -0.39 -0.11 t-0.25 -0.31 l-1.46 -3.44 l-5.66 0 l-1.44 3.44 q-0.08 0.2 -0.25 0.31 t-0.39 0.11 l-1.66 0 q-0.18 0 -0.34 -0.09 t-0.25 -0.23 t-0.11 -0.31 t0.06 -0.33 l5.64 -13.3 q0.08 -0.2 0.25 -0.31 t0.39 -0.11 l1.88 0 q0.22 0 0.39 0.11 t0.25 0.31 z M60.482 9.06 l-1.66 3.98 l3.32 0 z M84.736 5 q0.28 0 0.49 0.21 t0.21 0.49 l0 13.28 q0 0.28 -0.21 0.49 t-0.49 0.21 l-1.76 0 q-0.34 0 -0.56 -0.28 l-6.94 -9.5 l0 9.08 q0 0.28 -0.21 0.49 t-0.49 0.21 l-1.5 0 q-0.28 0 -0.49 -0.21 t-0.21 -0.49 l0 -13.28 q0 -0.28 0.21 -0.49 t0.49 -0.21 l1.74 0 q0.16 0 0.32 0.07 t0.24 0.21 l6.96 9.46 l0 -9.04 q0 -0.28 0.2 -0.49 t0.48 -0.21 l1.52 0 z"></path>
  </g>
  <g id="SvgjsG5611" featurekey="inlineSymbolFeature-0"
    transform="matrix(0.5163505112409318,0,0,0.5163505112409318,160.16024989631023,-2.5816767219506507)"
    fill="#34d399">
    <g xmlns="http://www.w3.org/2000/svg">
      <circle fill="none" cx="50" cy="72.537" r="1.775"></circle>
      <path fill="none"
        d="M39.106,25.903c0.205,0.205,0.417,0.306,0.62,0.271c0.098-0.018,0.187-0.065,0.267-0.14   c0.986,3.067,2.876,7.224,5.26,9.048c1.374,1.05,2.911,1.693,4.534,1.693c1.659,0,3.228-0.672,4.624-1.764   c2.342-1.833,4.195-5.949,5.169-8.977c0.08,0.075,0.169,0.123,0.268,0.14c0.174,0.03,0.356-0.04,0.533-0.19   c0.446-0.378,0.864-1.261,1.056-2.333c0.25-1.398,0.025-2.624-0.5-2.869c-0.038-0.018-0.078-0.032-0.12-0.039   c-0.162-0.028-0.332,0.033-0.499,0.163l-0.009,0.011c0-0.001-0.001-0.003-0.001-0.003c-0.002,0.001-0.003,0.002-0.005,0.003   c-0.001-0.01-0.001-0.02-0.002-0.03c-0.634-2.402-1.43-3.874-2.253-4.748c-0.157-0.084-0.323-0.155-0.502-0.207   c-0.021,0.354,0.382,0.891,0.425,1.415c-1.14-0.53-2.228-1.355-3.817-1.415c-0.365-0.014-0.755-0.012-1.159-0.004   c-3.845,1.388-8.086-0.178-8.086-0.178c-4.812-0.445-5.575,4.553-5.634,5.125c-0.001,0.014-0.002,0.028-0.003,0.042l0-0.001   c-0.171-0.137-0.345-0.201-0.512-0.173c-0.073,0.014-0.142,0.043-0.205,0.089c-0.153,0.109-0.275,0.312-0.363,0.579   c-0.047,0.674-0.071,1.356-0.082,2.06c0.009,0.06,0.018,0.12,0.029,0.18C38.315,24.654,38.693,25.491,39.106,25.903z"></path>
      <path fill="#34d399"
        d="M48.034,52.492L48.034,52.492h3.434h3.682h11.645h8.339h2.005c-0.034-0.178-0.075-0.354-0.126-0.529   c-3.091-10.632-8.801-10.998-10.03-11.285c-2.419-0.567-5.35-0.325-6.912-0.813c-0.274,2.289-4.68,4.109-10.076,4.109   c-5.395,0-9.801-1.82-10.075-4.109c-1.563,0.488-4.493,0.247-6.913,0.813c-1.229,0.287-6.939,0.653-10.03,11.285   c-0.051,0.175-0.092,0.352-0.126,0.529h21.651H48.034z"></path>
      <path
        d="M37.994,27.074c1.073,2.888,2.772,6.79,4.872,8.841c1.189,1.161,2.506,2.082,3.911,2.638   c0.966,0.384,1.973,0.596,3.009,0.596c1.035,0,2.042-0.212,3.008-0.596c1.454-0.577,2.814-1.541,4.035-2.759   c2.049-2.046,3.705-5.906,4.757-8.745c0.809-0.237,1.657-1.753,2.003-3.689c0.375-2.1,0.023-3.933-0.785-4.242   c0.029-0.511,0.045-1.031,0.043-1.56C62.828,9.944,58.363,5.518,51.322,5.045c-6.137-0.412-10.761,2.026-12.867,6.08   c-0.7,1.348-1.105,3.027-1.266,4.855c-0.247,0.984-0.378,2.013-0.378,3.073h0.023c-0.001,0.008-0.001,0.016-0.002,0.024   c-0.015,0.002-0.03,0.003-0.045,0.005c-0.898,0.156-1.307,2.071-0.913,4.278C36.236,25.389,37.151,26.956,37.994,27.074z    M38.188,21.411c0.087-0.267,0.209-0.469,0.363-0.579c0.063-0.046,0.132-0.076,0.205-0.089c0.167-0.028,0.341,0.036,0.512,0.173   l0,0.001c0.001-0.014,0.002-0.027,0.003-0.042c0.059-0.572,0.822-5.571,5.634-5.125c0,0,4.241,1.566,8.086,0.178   c0.404-0.008,0.794-0.01,1.159,0.004c1.59,0.059,2.678,0.884,3.817,1.415c-0.043-0.523-0.446-1.061-0.425-1.415   c0.179,0.052,0.345,0.123,0.502,0.207c0.823,0.874,1.619,2.346,2.253,4.748c0.001,0.01,0.001,0.021,0.002,0.03   c0.002-0.001,0.003-0.002,0.005-0.003c0,0,0.001,0.002,0.001,0.003l0.009-0.011c0.167-0.13,0.337-0.191,0.499-0.163   c0.042,0.007,0.082,0.021,0.12,0.039c0.525,0.245,0.75,1.471,0.5,2.869c-0.191,1.072-0.609,1.955-1.056,2.333   c-0.177,0.15-0.359,0.22-0.533,0.19c-0.099-0.018-0.188-0.065-0.268-0.14c-0.974,3.028-2.827,7.145-5.169,8.977   c-1.396,1.092-2.965,1.764-4.624,1.764c-1.623,0-3.16-0.644-4.534-1.693c-2.383-1.824-4.273-5.981-5.26-9.048   c-0.08,0.075-0.169,0.123-0.267,0.14c-0.202,0.036-0.415-0.066-0.62-0.271c-0.413-0.412-0.791-1.249-0.97-2.252   c-0.011-0.061-0.02-0.12-0.029-0.18C38.117,22.767,38.141,22.085,38.188,21.411z"></path>
      <path fill="#34d399"
        d="M77.829,92.143H22.171c-0.783,0-1.418,0.641-1.418,1.429c0,0.789,0.635,1.429,1.418,1.429h55.658   c0.784,0,1.418-0.64,1.418-1.429C79.246,92.783,78.611,92.143,77.829,92.143z"></path>
      <path fill="#34d399"
        d="M25.202,91.298h49.597c1.844,0,3.34-1.494,3.34-3.34l6.679-31.431c0-1.844-1.494-3.339-3.34-3.339h-4.34   h-2.005h-8.339H55.149h-3.682h-3.433h-0.001h-3.533H22.85h-4.327c-1.845,0-3.34,1.494-3.34,3.339l6.679,31.432   C21.861,89.804,23.357,91.298,25.202,91.298z M50,70.762c0.98,0,1.774,0.795,1.774,1.775c0,0.979-0.794,1.774-1.774,1.774   c-0.98,0-1.775-0.795-1.775-1.774C48.225,71.557,49.02,70.762,50,70.762z"></path>
    </g>
  </g>
  <g id="SvgjsG5612" featurekey="nameRightFeature-0"
    transform="matrix(1.7204839549081088,0,0,1.7204839549081088,208.6693429589048,1.4081780322610147)"
    fill="#34d399">
    <path
      d="M22.654 5 q0.28 0 0.49 0.21 t0.21 0.49 l0 13.4 q0 0.28 -0.21 0.49 t-0.49 0.21 l-1.52 0 q-0.3 0 -0.5 -0.21 t-0.2 -0.49 l0 -9.04 l-3.7 4.76 q-0.22 0.26 -0.56 0.26 l0 0 q-0.16 0 -0.32 -0.07 t-0.24 -0.21 l-6.56 -8.68 q-0.12 -0.14 -0.14 -0.35 t0.08 -0.38 t0.26 -0.28 t0.36 -0.11 l1.76 0 q0.34 0 0.56 0.28 l4.24 5.6 l4.14 -5.6 q0.22 -0.28 0.58 -0.28 l1.76 0 z M11.134 14.7 q0.28 0 0.49 0.2 t0.21 0.5 l0 3.7 q0 0.28 -0.21 0.49 t-0.49 0.21 l-1.52 0 q-0.28 0 -0.49 -0.21 t-0.21 -0.49 l0 -3.7 q0 -0.3 0.21 -0.5 t0.49 -0.2 l1.52 0 z M31.908 10.94 q0.3 0 0.5 0.21 t0.2 0.51 l0 7.48 q0 0.28 -0.2 0.49 t-0.5 0.21 l-1.52 0 q-0.28 0 -0.49 -0.21 t-0.21 -0.49 l0 -7.48 q0 -0.3 0.21 -0.51 t0.49 -0.21 l1.52 0 z M31.908 5 q0.3 0 0.5 0.21 t0.2 0.49 l0 3.7 q0 0.3 -0.2 0.51 t-0.5 0.21 l-1.52 0 q-0.28 0 -0.49 -0.21 t-0.21 -0.51 l0 -3.7 q0 -0.28 0.21 -0.49 t0.49 -0.21 l1.52 0 z M48.722 12.42 q0.86 0.54 1.31 1.32 t0.45 1.74 q0 2.26 -1.72 3.46 q-1.16 0.84 -3.14 1.06 l-0.08 0 q-0.28 0 -0.46 -0.18 q-0.24 -0.22 -0.24 -0.52 l0 -1.44 q0 -0.26 0.18 -0.46 t0.44 -0.24 q0.94 -0.1 1.46 -0.44 q0.4 -0.24 0.54 -0.62 q0.08 -0.22 0.08 -0.56 q0 -0.22 -0.08 -0.38 t-0.28 -0.3 q-0.58 -0.4 -1.5 -0.68 l-0.32 -0.1 q-1 -0.28 -1.84 -0.46 q-0.18 -0.04 -0.58 -0.14 l-0.22 -0.06 q-0.72 -0.18 -1.52 -0.5 q-1.18 -0.5 -1.94 -1.26 q-0.88 -0.88 -0.88 -2.32 q0 -1.98 1.52 -3.22 q1.04 -0.88 2.92 -1.12 q0.32 -0.04 0.55 0.18 t0.23 0.52 l0 1.44 q0 0.26 -0.16 0.46 t-0.41 0.23 t-0.51 0.11 q-0.58 0.22 -0.82 0.43 t-0.34 0.43 q-0.1 0.34 -0.1 0.64 q0 0.16 0.18 0.34 q0.28 0.28 0.82 0.5 q0.24 0.1 0.84 0.3 l2.5 0.62 l0.12 0.04 q0.94 0.26 1.36 0.4 q0.94 0.32 1.64 0.78 z M45.382000000000005 7.9 q-0.24 -0.06 -0.39 -0.25 t-0.15 -0.45 l0 -1.46 q0 -0.32 0.26 -0.54 q0.1 -0.1 0.26 -0.13 t0.3 -0.01 q1.76 0.28 2.86 1.2 q1.5 1.24 1.6 3.16 q0.02 0.28 -0.19 0.51 t-0.51 0.23 l-1.56 0 q-0.26 0 -0.46 -0.18 t-0.22 -0.44 q-0.08 -0.52 -0.34 -0.86 q-0.42 -0.5 -1.3 -0.76 q-0.06 0 -0.08 -0.02 l-0.08 0 z M43.042 17.08 q0.24 0.04 0.4 0.24 t0.16 0.44 l0 1.48 q0 0.32 -0.24 0.54 q-0.2 0.16 -0.46 0.16 l-0.1 0 q-1.86 -0.28 -3.06 -1.22 q-1.56 -1.24 -1.76 -3.46 q-0.04 -0.32 0.18 -0.55 t0.52 -0.23 l1.58 0 q0.28 0 0.48 0.19 t0.22 0.47 q0.06 1 0.98 1.54 q0.42 0.24 1.1 0.4 z M56.596000000000004 10.12 q-0.28 0 -0.49 -0.21 t-0.21 -0.49 l0 -3.72 q0 -0.28 0.21 -0.49 t0.49 -0.21 l1.52 0 q0.3 0 0.5 0.21 t0.2 0.49 l0 3.72 q0 0.28 -0.2 0.49 t-0.5 0.21 l-1.52 0 z M67.456 5 q0.28 0 0.49 0.21 t0.21 0.49 l0 13.44 q0 0.28 -0.21 0.49 t-0.49 0.21 l-1.52 0 q-0.3 0 -0.5 -0.21 t-0.2 -0.49 l0 -5.28 l-6.42 0 l0 5.28 q0 0.28 -0.2 0.49 t-0.5 0.21 l-1.52 0 q-0.28 0 -0.49 -0.21 t-0.21 -0.49 l0 -7.48 q0 -0.28 0.21 -0.49 t0.49 -0.21 l8.64 0 l0 -5.26 q0 -0.28 0.2 -0.49 t0.5 -0.21 l1.52 0 z M83.97 14.1 l3.02 4.62 q0.22 0.36 0.02 0.72 q-0.08 0.16 -0.25 0.26 t-0.35 0.1 l-1.82 0 q-0.18 0 -0.34 -0.09 t-0.24 -0.23 l-3.04 -4.82 l-3.56 0 l0 4.44 q0 0.28 -0.21 0.49 t-0.49 0.21 l-1.52 0 q-0.28 0 -0.49 -0.21 t-0.21 -0.49 l0 -6.58 q0 -0.28 0.21 -0.49 t0.49 -0.21 l6.16 0 q1.76 0 2.34 -1 q0.2 -0.32 0.2 -0.92 q0 -0.94 -0.62 -1.48 q-0.64 -0.58 -1.84 -0.58 l-6.24 0 q-0.28 0 -0.49 -0.21 t-0.21 -0.49 l0 -1.44 q0 -0.28 0.21 -0.49 t0.49 -0.21 l6.42 0 q2.34 0 3.74 1.32 q1.46 1.32 1.46 3.58 q0 1.46 -0.64 2.49 t-1.86 1.57 z M105.664 18.86 q0.14 0.32 -0.07 0.65 t-0.57 0.33 l-13.32 0 q-0.18 0 -0.34 -0.09 t-0.24 -0.23 q-0.22 -0.32 -0.06 -0.66 l0.62 -1.46 q0.08 -0.2 0.26 -0.32 t0.38 -0.12 l9.32 0 l-3.28 -7.84 l-2.68 6.4 q-0.08 0.2 -0.25 0.31 t-0.39 0.11 l-1.68 0 q-0.38 0 -0.6 -0.32 q-0.08 -0.14 -0.1 -0.32 t0.04 -0.34 l4.06 -9.52 q0.08 -0.2 0.25 -0.32 t0.39 -0.12 l1.92 0 q0.22 0 0.39 0.12 t0.25 0.32 z"></path>
  </g>
</svg>